<svg xmlns="http://www.w3.org/2000/svg" xmlns:xlink="http://www.w3.org/1999/xlink" width="500" zoomAndPan="magnify" viewBox="0 0 375 374.999991" height="500" preserveAspectRatio="xMidYMid meet" version="1.0"><defs><clipPath id="24d5c989df"><path d="M 188 161.621094 L 213.371094 161.621094 L 213.371094 187 L 188 187 Z M 188 161.621094 " clip-rule="nonzero"/></clipPath><clipPath id="c5234f184a"><path d="M 161.621094 161.621094 L 187 161.621094 L 187 187 L 161.621094 187 Z M 161.621094 161.621094 " clip-rule="nonzero"/></clipPath><clipPath id="1a4b8a5ae7"><path d="M 161.621094 188 L 187 188 L 187 213.371094 L 161.621094 213.371094 Z M 161.621094 188 " clip-rule="nonzero"/></clipPath></defs><path fill="#4d1480" d="M 195.8125 198.613281 L 206.828125 198.613281 L 206.828125 201 L 195.8125 201 Z M 195.8125 203.390625 L 206.828125 203.390625 L 206.828125 205.722656 L 195.8125 205.722656 Z M 195.8125 203.390625 " fill-opacity="1" fill-rule="nonzero"/><g clip-path="url(#24d5c989df)"><path fill="#4d1480" d="M 210.148438 161.59375 L 188.609375 161.59375 L 188.609375 186.285156 L 213.371094 186.285156 L 213.371094 164.800781 C 213.375 164.371094 213.292969 163.960938 213.128906 163.566406 C 212.96875 163.171875 212.734375 162.824219 212.429688 162.523438 C 212.128906 162.21875 211.777344 161.988281 211.382812 161.828125 C 210.988281 161.667969 210.574219 161.589844 210.148438 161.59375 Z M 208.132812 175.59375 L 194.503906 175.59375 L 194.503906 173.261719 L 208.132812 173.261719 Z M 208.132812 175.59375 " fill-opacity="1" fill-rule="nonzero"/></g><g clip-path="url(#c5234f184a)"><path fill="#4d1480" d="M 161.539062 164.800781 L 161.539062 186.28125 L 186.246094 186.28125 L 186.246094 161.585938 L 164.746094 161.585938 C 164.320312 161.585938 163.910156 161.664062 163.515625 161.828125 C 163.121094 161.988281 162.773438 162.222656 162.472656 162.523438 C 162.167969 162.824219 161.9375 163.171875 161.777344 163.566406 C 161.613281 163.960938 161.535156 164.375 161.539062 164.800781 Z M 166.765625 173.261719 L 172.355469 173.261719 L 172.355469 167.613281 L 174.757812 167.613281 L 174.757812 173.261719 L 180.339844 173.261719 L 180.339844 175.59375 L 174.757812 175.59375 L 174.757812 181.242188 L 172.367188 181.242188 L 172.367188 175.59375 L 166.765625 175.59375 Z M 166.765625 173.261719 " fill-opacity="1" fill-rule="nonzero"/></g><g clip-path="url(#1a4b8a5ae7)"><path fill="#4d1480" d="M 161.539062 210.199219 C 161.535156 210.628906 161.613281 211.039062 161.777344 211.433594 C 161.9375 211.828125 162.171875 212.175781 162.472656 212.476562 C 162.773438 212.777344 163.121094 213.011719 163.515625 213.171875 C 163.910156 213.335938 164.320312 213.414062 164.746094 213.414062 L 186.246094 213.414062 L 186.246094 188.679688 L 161.539062 188.679688 Z M 167.925781 198.199219 L 169.605469 196.515625 L 173.546875 200.515625 L 177.546875 196.515625 L 179.226562 198.199219 L 175.230469 202.195312 L 179.230469 206.136719 L 177.546875 207.816406 L 173.550781 203.875 L 169.609375 207.816406 L 167.929688 206.136719 L 171.867188 202.195312 Z M 167.925781 198.199219 " fill-opacity="1" fill-rule="nonzero"/></g></svg>